<mxfile host="app.diagrams.net" agent="Mozilla/5.0 (X11; Linux x86_64; rv:131.0) Gecko/20100101 Firefox/131.0" version="24.8.0">
  <diagram name="Page-1" id="FzRT6Yc8G9MSFTNoKKKB">
    <mxGraphModel dx="711" dy="444" grid="1" gridSize="10" guides="1" tooltips="1" connect="1" arrows="1" fold="1" page="0" pageScale="1" pageWidth="850" pageHeight="1100" math="0" shadow="0">
      <root>
        <mxCell id="0" />
        <mxCell id="1" parent="0" />
        <mxCell id="10" value="&lt;div&gt;&lt;br&gt;&lt;/div&gt;&lt;div&gt;Output &lt;br&gt;&lt;/div&gt;&lt;div&gt;(HTML, HTTP headers)&lt;/div&gt;" style="text;html=1;align=center;verticalAlign=middle;resizable=0;points=[];autosize=1;strokeColor=none;fillColor=none;" parent="1" vertex="1">
          <mxGeometry x="460" y="110" width="150" height="60" as="geometry" />
        </mxCell>
        <mxCell id="2" style="edgeStyle=orthogonalEdgeStyle;rounded=0;orthogonalLoop=1;jettySize=auto;html=1;entryX=0.005;entryY=0.312;entryDx=0;entryDy=0;exitX=0.996;exitY=0.319;exitDx=0;exitDy=0;exitPerimeter=0;entryPerimeter=0;" parent="1" source="3" target="4" edge="1">
          <mxGeometry relative="1" as="geometry" />
        </mxCell>
        <mxCell id="3" value="&lt;div&gt;Web server&lt;/div&gt;" style="rounded=0;whiteSpace=wrap;html=1;" parent="1" vertex="1">
          <mxGeometry x="435" y="90" width="70" height="50" as="geometry" />
        </mxCell>
        <mxCell id="4" value="PHP&lt;br&gt;application" style="rounded=0;whiteSpace=wrap;html=1;" parent="1" vertex="1">
          <mxGeometry x="565" y="90" width="70" height="50" as="geometry" />
        </mxCell>
        <mxCell id="5" style="edgeStyle=orthogonalEdgeStyle;rounded=0;orthogonalLoop=1;jettySize=auto;html=1;entryX=-0.011;entryY=0.323;entryDx=0;entryDy=0;exitX=1.001;exitY=0.327;exitDx=0;exitDy=0;exitPerimeter=0;entryPerimeter=0;" parent="1" source="6" target="3" edge="1">
          <mxGeometry relative="1" as="geometry" />
        </mxCell>
        <mxCell id="6" value="&lt;div&gt;Fuzzer&lt;/div&gt;" style="rounded=0;whiteSpace=wrap;html=1;" parent="1" vertex="1">
          <mxGeometry x="305" y="90" width="70" height="50" as="geometry" />
        </mxCell>
        <mxCell id="7" value="Fuzz&lt;br&gt;input" style="text;html=1;align=center;verticalAlign=middle;resizable=0;points=[];autosize=1;strokeColor=none;fillColor=none;" parent="1" vertex="1">
          <mxGeometry x="510" y="70" width="50" height="40" as="geometry" />
        </mxCell>
        <mxCell id="8" value="&lt;div&gt;HTTP &lt;br&gt;request&lt;/div&gt;" style="text;html=1;align=center;verticalAlign=middle;resizable=0;points=[];autosize=1;strokeColor=none;fillColor=none;" parent="1" vertex="1">
          <mxGeometry x="375" y="68" width="60" height="40" as="geometry" />
        </mxCell>
        <mxCell id="9" value="" style="endArrow=classic;html=1;rounded=0;exitX=0;exitY=0.75;exitDx=0;exitDy=0;entryX=1;entryY=0.75;entryDx=0;entryDy=0;" parent="1" source="4" target="3" edge="1">
          <mxGeometry width="50" height="50" relative="1" as="geometry">
            <mxPoint x="460" y="410" as="sourcePoint" />
            <mxPoint x="510" y="360" as="targetPoint" />
          </mxGeometry>
        </mxCell>
        <mxCell id="12" value="&lt;div&gt;HTTP &lt;br&gt;response&lt;/div&gt;" style="text;html=1;align=center;verticalAlign=middle;resizable=0;points=[];autosize=1;strokeColor=none;fillColor=none;" parent="1" vertex="1">
          <mxGeometry x="370" y="130" width="70" height="40" as="geometry" />
        </mxCell>
        <mxCell id="13" value="" style="endArrow=classic;html=1;rounded=0;exitX=0.5;exitY=1;exitDx=0;exitDy=0;entryX=0.411;entryY=0.986;entryDx=0;entryDy=0;entryPerimeter=0;dashed=1;dashPattern=8 8;" parent="1" source="4" target="6" edge="1">
          <mxGeometry width="50" height="50" relative="1" as="geometry">
            <mxPoint x="450" y="290" as="sourcePoint" />
            <mxPoint x="210" y="180" as="targetPoint" />
            <Array as="points">
              <mxPoint x="600" y="170" />
              <mxPoint x="334" y="170" />
            </Array>
          </mxGeometry>
        </mxCell>
        <mxCell id="14" value="Feedback (coverage, errors, etc.)" style="text;html=1;align=center;verticalAlign=middle;resizable=0;points=[];autosize=1;strokeColor=none;fillColor=none;fontColor=#A30000;" parent="1" vertex="1">
          <mxGeometry x="380" y="165" width="200" height="30" as="geometry" />
        </mxCell>
        <mxCell id="15" value="&lt;div&gt;/login&lt;/div&gt;&lt;div&gt;/register&lt;/div&gt;" style="text;html=1;align=center;verticalAlign=middle;resizable=0;points=[];autosize=1;strokeColor=none;fillColor=none;fontColor=#a30000;" parent="1" vertex="1">
          <mxGeometry x="564" y="49" width="70" height="40" as="geometry" />
        </mxCell>
        <mxCell id="16" value="user=foobar&lt;br&gt;&amp;amp;pw=123" style="text;html=1;align=center;verticalAlign=middle;resizable=0;points=[];autosize=1;strokeColor=none;fillColor=none;fontColor=#A30000;" parent="1" vertex="1">
          <mxGeometry x="295" y="50" width="90" height="40" as="geometry" />
        </mxCell>
        <mxCell id="evNQhm3MIxErqS0BsXcY-16" value="" style="endArrow=classic;html=1;rounded=0;exitX=0;exitY=0.75;exitDx=0;exitDy=0;entryX=1;entryY=0.75;entryDx=0;entryDy=0;" edge="1" parent="1">
          <mxGeometry width="50" height="50" relative="1" as="geometry">
            <mxPoint x="435" y="128" as="sourcePoint" />
            <mxPoint x="375" y="128" as="targetPoint" />
          </mxGeometry>
        </mxCell>
      </root>
    </mxGraphModel>
  </diagram>
</mxfile>
